<svg width="473" height="515" viewBox="0 0 473 515" fill="none" xmlns="http://www.w3.org/2000/svg">
<g clip-path="url(#clip0_2636_2607)">
<path d="M135.471 184.5L371.873 184.08C376.101 184.08 379.549 187.529 379.549 191.788L380.119 506.092C380.119 510.351 376.701 513.83 372.473 513.83L136.07 514.25C131.842 514.25 128.394 510.801 128.394 506.542L127.824 192.238C127.794 187.979 131.213 184.5 135.471 184.5Z" fill="#070B22"/>
<path d="M149.285 494.005C146.524 494.005 144.285 491.766 144.285 489.005V204.347C144.285 201.585 146.524 199.347 149.285 199.347H358.686C361.448 199.347 363.686 201.585 363.686 204.347V440.796V489.005C363.686 491.766 361.448 494.005 358.686 494.005H312.232H149.285Z" fill="white"/>
<line x1="254.949" y1="307" x2="254.949" y2="472" stroke="#737373"/>
<path d="M200.831 291.168C203.631 291.168 204.989 289.768 204.989 288.13C204.989 284.532 199.291 285.778 199.291 283.972C199.291 283.356 199.809 282.852 201.153 282.852C202.021 282.852 202.959 283.104 203.869 283.622L204.569 281.9C203.659 281.326 202.399 281.032 201.167 281.032C198.381 281.032 197.037 282.418 197.037 284.084C197.037 287.724 202.735 286.464 202.735 288.298C202.735 288.9 202.189 289.348 200.845 289.348C199.669 289.348 198.437 288.928 197.611 288.326L196.841 290.034C197.709 290.706 199.277 291.168 200.831 291.168ZM213.963 287.262C213.963 284.84 212.255 283.356 210.043 283.356C207.747 283.356 206.025 284.98 206.025 287.234C206.025 289.474 207.719 291.112 210.323 291.112C211.681 291.112 212.731 290.692 213.431 289.894L212.269 288.634C211.751 289.124 211.177 289.362 210.379 289.362C209.231 289.362 208.433 288.788 208.223 287.85H213.921C213.935 287.668 213.963 287.43 213.963 287.262ZM210.057 285.008C211.037 285.008 211.751 285.624 211.905 286.576H208.195C208.349 285.61 209.063 285.008 210.057 285.008ZM215.617 291H217.801V280.612H215.617V291ZM227.406 287.262C227.406 284.84 225.698 283.356 223.486 283.356C221.19 283.356 219.468 284.98 219.468 287.234C219.468 289.474 221.162 291.112 223.766 291.112C225.124 291.112 226.174 290.692 226.874 289.894L225.712 288.634C225.194 289.124 224.62 289.362 223.822 289.362C222.674 289.362 221.876 288.788 221.666 287.85H227.364C227.378 287.668 227.406 287.43 227.406 287.262ZM223.5 285.008C224.48 285.008 225.194 285.624 225.348 286.576H221.638C221.792 285.61 222.506 285.008 223.5 285.008ZM232.7 291.112C234.282 291.112 235.528 290.412 236.074 289.208L234.38 288.284C233.974 289.012 233.372 289.32 232.686 289.32C231.58 289.32 230.712 288.55 230.712 287.234C230.712 285.918 231.58 285.148 232.686 285.148C233.372 285.148 233.974 285.47 234.38 286.184L236.074 285.274C235.528 284.042 234.282 283.356 232.7 283.356C230.25 283.356 228.5 284.966 228.5 287.234C228.5 289.502 230.25 291.112 232.7 291.112ZM241.911 289.096C241.673 289.278 241.351 289.376 241.029 289.376C240.441 289.376 240.091 289.026 240.091 288.382V285.316H241.967V283.636H240.091V281.802H237.907V283.636H236.745V285.316H237.907V288.41C237.907 290.202 238.943 291.112 240.721 291.112C241.393 291.112 242.051 290.958 242.499 290.636L241.911 289.096ZM252.934 291.168C254.642 291.168 256.056 290.552 256.98 289.418L255.524 288.074C254.866 288.844 254.04 289.236 253.06 289.236C251.226 289.236 249.924 287.948 249.924 286.1C249.924 284.252 251.226 282.964 253.06 282.964C254.04 282.964 254.866 283.356 255.524 284.112L256.98 282.768C256.056 281.648 254.642 281.032 252.948 281.032C249.896 281.032 247.628 283.146 247.628 286.1C247.628 289.054 249.896 291.168 252.934 291.168ZM261.881 291.112C264.275 291.112 266.011 289.502 266.011 287.234C266.011 284.966 264.275 283.356 261.881 283.356C259.487 283.356 257.737 284.966 257.737 287.234C257.737 289.502 259.487 291.112 261.881 291.112ZM261.881 289.32C260.789 289.32 259.949 288.536 259.949 287.234C259.949 285.932 260.789 285.148 261.881 285.148C262.973 285.148 263.799 285.932 263.799 287.234C263.799 288.536 262.973 289.32 261.881 289.32ZM267.671 291H269.855V280.612H267.671V291ZM272.082 291H274.266V280.612H272.082V291ZM283.871 287.262C283.871 284.84 282.163 283.356 279.951 283.356C277.655 283.356 275.933 284.98 275.933 287.234C275.933 289.474 277.627 291.112 280.231 291.112C281.589 291.112 282.639 290.692 283.339 289.894L282.177 288.634C281.659 289.124 281.085 289.362 280.287 289.362C279.139 289.362 278.341 288.788 278.131 287.85H283.829C283.843 287.668 283.871 287.43 283.871 287.262ZM279.965 285.008C280.945 285.008 281.659 285.624 281.813 286.576H278.103C278.257 285.61 278.971 285.008 279.965 285.008ZM291.223 283.468V284.434C290.649 283.706 289.781 283.356 288.731 283.356C286.645 283.356 284.965 284.798 284.965 286.996C284.965 289.194 286.645 290.636 288.731 290.636C289.711 290.636 290.537 290.328 291.111 289.698V290.02C291.111 291.378 290.439 292.078 288.899 292.078C287.933 292.078 286.883 291.742 286.239 291.224L285.371 292.792C286.253 293.478 287.639 293.828 289.067 293.828C291.783 293.828 293.295 292.54 293.295 289.74V283.468H291.223ZM289.165 288.844C288.017 288.844 287.177 288.102 287.177 286.996C287.177 285.89 288.017 285.148 289.165 285.148C290.313 285.148 291.139 285.89 291.139 286.996C291.139 288.102 290.313 288.844 289.165 288.844ZM302.906 287.262C302.906 284.84 301.198 283.356 298.986 283.356C296.69 283.356 294.968 284.98 294.968 287.234C294.968 289.474 296.662 291.112 299.266 291.112C300.624 291.112 301.674 290.692 302.374 289.894L301.212 288.634C300.694 289.124 300.12 289.362 299.322 289.362C298.174 289.362 297.376 288.788 297.166 287.85H302.864C302.878 287.668 302.906 287.43 302.906 287.262ZM299 285.008C299.98 285.008 300.694 285.624 300.848 286.576H297.138C297.292 285.61 298.006 285.008 299 285.008ZM307.094 291.112C309.348 291.112 310.65 290.118 310.65 288.718C310.65 285.75 306.1 286.996 306.1 285.708C306.1 285.316 306.52 285.008 307.5 285.008C308.186 285.008 308.928 285.148 309.67 285.568L310.398 284.014C309.684 283.594 308.536 283.356 307.5 283.356C305.302 283.356 304.014 284.364 304.014 285.792C304.014 288.802 308.564 287.542 308.564 288.774C308.564 289.194 308.186 289.46 307.178 289.46C306.254 289.46 305.232 289.166 304.56 288.732L303.832 290.3C304.532 290.762 305.82 291.112 307.094 291.112Z" fill="black"/>
<path d="M174.15 329.625H154.449V309.918H174.15V329.625ZM155.88 328.207H172.733V311.35H155.88V328.207Z" fill="#BDBDBD"/>
<path d="M239.447 309.708H179.123V311.737H239.447V309.708Z" fill="#BDBDBD"/>
<path d="M239.447 318.646H179.123V320.675H239.447V318.646Z" fill="#BDBDBD"/>
<path d="M164.054 326.844L158.135 317.797C157.996 317.589 158.052 317.311 158.26 317.172C158.468 317.033 158.732 317.088 158.871 317.297L163.845 324.899L170.167 308.292C170.25 308.055 170.514 307.944 170.736 308.028C170.958 308.125 171.07 308.375 170.986 308.611L164.054 326.844Z" fill="#FFA378"/>
<path d="M174.15 372.2H154.449V352.494H174.15V372.2ZM155.88 370.769H172.733V353.912H155.88V370.769Z" fill="#BDBDBD"/>
<path d="M239.447 352.397H179.123V354.426H239.447V352.397Z" fill="#BDBDBD"/>
<path d="M239.447 361.333H179.123V363.362H239.447V361.333Z" fill="#BDBDBD"/>
<path d="M164.612 368.546L157.415 357.734C157.248 357.47 157.318 357.123 157.568 356.956C157.818 356.789 158.165 356.845 158.332 357.109L164.362 366.128L172.211 345.546C172.322 345.254 172.642 345.116 172.92 345.227C173.198 345.338 173.337 345.671 173.226 345.949L164.612 368.546Z" fill="#FFA378"/>
<path d="M172.15 415.001H152.449V395.303H172.15V415.001ZM153.88 413.57H170.733V396.72H153.88V413.57Z" fill="#BDBDBD"/>
<path d="M237.447 395.205H177.123V397.234H237.447V395.205Z" fill="#BDBDBD"/>
<path d="M237.447 404.137H177.123V406.166H237.447V404.137Z" fill="#BDBDBD"/>
<path d="M172.15 458.001H152.449V438.303H172.15V458.001ZM153.88 456.57H170.733V439.72H153.88V456.57Z" fill="#BDBDBD"/>
<path d="M237.447 438.205H177.123V440.234H237.447V438.205Z" fill="#BDBDBD"/>
<path d="M237.447 447.137H177.123V449.166H237.447V447.137Z" fill="#BDBDBD"/>
<path d="M162.612 454.347L155.415 443.54C155.248 443.276 155.318 442.929 155.568 442.762C155.818 442.596 156.165 442.651 156.332 442.915L162.362 451.93L170.211 431.358C170.322 431.066 170.642 430.927 170.92 431.038C171.198 431.149 171.337 431.483 171.226 431.761L162.612 454.347Z" fill="#FFA378"/>
<path d="M348.449 308.397H276.523V310.426H348.449V308.397Z" fill="#BDBDBD"/>
<path d="M348.449 317.333H276.523V319.362H348.449V317.333Z" fill="#BDBDBD"/>
<path d="M262.547 308.2V310.02H264.507V318H266.775V308.2H262.547Z" fill="#737373"/>
<path d="M345.449 352.397H273.523V354.426H345.449V352.397Z" fill="#BDBDBD"/>
<path d="M345.449 361.333H273.523V363.362H345.449V361.333Z" fill="#BDBDBD"/>
<path d="M263.103 360.152L265.357 358.024C266.729 356.75 266.995 355.882 266.995 354.93C266.995 353.152 265.539 352.032 263.355 352.032C261.591 352.032 260.219 352.746 259.463 353.852L261.115 354.916C261.591 354.258 262.305 353.936 263.145 353.936C264.181 353.936 264.713 354.384 264.713 355.154C264.713 355.63 264.559 356.134 263.691 356.96L259.911 360.53V362H267.317V360.152H263.103Z" fill="#737373"/>
<path d="M345.449 394.397H273.523V396.426H345.449V394.397Z" fill="#BDBDBD"/>
<path d="M345.449 403.333H273.523V405.362H345.449V403.333Z" fill="#BDBDBD"/>
<path d="M264.573 398.19L266.785 395.67V394.2H259.925V396.02H264.097L262.081 398.302V399.8H263.117C264.405 399.8 264.951 400.262 264.951 401.004C264.951 401.802 264.251 402.264 263.117 402.264C262.095 402.264 261.059 401.942 260.317 401.382L259.435 403.118C260.387 403.79 261.801 404.168 263.173 404.168C265.959 404.168 267.233 402.656 267.233 401.004C267.233 399.562 266.337 398.47 264.573 398.19Z" fill="#737373"/>
<path d="M54.6165 221.85C58.3046 221.64 66.9403 221.28 74.4666 221.91C77.585 222.18 80.2537 219.69 80.1938 216.571C80.1638 215.281 79.714 213.812 78.5146 212.132C73.9569 205.653 66.0408 211.832 66.1008 215.131C66.1008 215.131 64.5115 210.182 59.624 211.052C54.7664 211.922 56.4755 219.12 56.4755 219.12C56.4755 219.12 54.9163 218.79 53.8069 219.54C52.7274 220.26 53.2971 221.94 54.6165 221.85Z" fill="#E0E7E1"/>
<path d="M10.5689 273.319C10.3291 272.539 10.419 271.639 10.9587 270.919C11.9483 269.569 13.7174 268.43 16.9258 268.25C16.9258 268.25 13.4775 252.863 26.8808 251.273C40.644 249.624 41.3636 265.82 41.3636 265.82C41.3636 265.82 49.1597 257.212 53.4176 267.71C53.4176 267.71 61.8134 263.481 65.8614 268.55C67.0608 270.079 66.8809 272.119 65.8314 273.349H10.5689V273.319Z" fill="#E0E7E1"/>
<path d="M91.109 136.758C90.8392 135.828 90.9291 134.748 91.5888 133.848C92.7582 132.228 94.9171 130.849 98.7552 130.639C98.7552 130.639 94.5873 112.163 110.719 110.213C127.271 108.234 128.141 127.699 128.141 127.699C128.141 127.699 137.526 117.382 142.653 129.949C142.653 129.949 152.758 124.85 157.616 130.969C159.055 132.798 158.815 135.258 157.586 136.758H91.109Z" fill="#E0E7E1"/>
<path d="M449 514H0V508H449V514Z" fill="#21111D"/>
<path d="M306.072 210.366H152.449V212.208H306.072V210.366Z" fill="#BDBDBD"/>
<path d="M306.072 218.506H152.449V220.348H306.072V218.506Z" fill="#BDBDBD"/>
<path d="M306.072 227.716H152.449V229.558H306.072V227.716Z" fill="#BDBDBD"/>
<path d="M306.072 235.84H152.449V237.682H306.072V235.84Z" fill="#BDBDBD"/>
<path d="M306.072 245.065H152.449V246.907H306.072V245.065Z" fill="#BDBDBD"/>
<path d="M306.072 253.19H152.449V255.032H306.072V253.19Z" fill="#BDBDBD"/>
<path d="M355.984 209H318.904V253.309H355.984V209Z" fill="#BDBDBD"/>
<path d="M332.601 244.427C328.294 243.699 328.621 238.753 328.621 238.753L329.022 223.646L329.037 223.364L346.841 220.052L346.886 227.003L346.901 228.34L346.916 229.098V229.944L346.96 235.841L346.975 236.926L346.708 241.278C346.708 241.278 347.599 248.423 348.089 253.31H331.264L332.601 244.427Z" fill="#FE9F73"/>
<path d="M342.742 240.49C342.742 240.49 342.237 248.763 331.887 249.283L332.614 244.441C332.6 244.426 339.267 245.956 342.742 240.49Z" fill="#F07162"/>
<path d="M347.913 229.781L343.443 230.583L342.611 231.4C342.611 231.4 343.19 223.958 344.067 222.517C344.943 221.077 347.913 229.781 347.913 229.781Z" fill="#3F2A49"/>
<path d="M345.39 236.215C347.44 236.215 349.103 234.552 349.103 232.501C349.103 230.45 347.44 228.788 345.39 228.788C343.34 228.788 341.678 230.45 341.678 232.501C341.678 234.552 343.34 236.215 345.39 236.215Z" fill="#FE9F73"/>
<path d="M347.904 229.78C347.904 229.78 349.344 222.59 347.206 219.842C345.068 217.094 332.505 212.044 330.931 213.351C329.357 214.658 330.857 216.337 330.857 216.337C330.857 216.337 325.808 214.569 324.531 219.055C323.254 223.541 334.168 225.754 340.746 223.808C340.761 223.808 345.038 225.19 347.904 229.78Z" fill="#3F2A49"/>
<g opacity="0.3">
<path opacity="0.3" d="M357.411 259.518H152.449V271H357.411V259.518Z" fill="#BDBDBD"/>
</g>
<path d="M118.439 442.414L106.295 442.594L106.115 431.106L118.229 429.606L118.439 442.414Z" fill="#FE9F73"/>
<path d="M97.5094 442.414L85.3655 442.594L85.1855 431.106L97.2995 429.606L97.5094 442.414Z" fill="#FE9F73"/>
<path d="M98.8287 343.195C99.2185 355.043 100.988 401.353 104.646 431.646C104.886 433.656 106.595 435.156 108.604 435.156C110.823 435.156 113.941 434.886 117.359 433.836C119.009 433.326 120.178 431.826 120.208 430.087L121.707 337.886C121.707 337.676 121.707 337.436 121.647 337.226L121.587 336.776C121.198 334.257 118.589 332.757 116.22 333.657L101.377 339.356C99.7882 339.956 98.7687 341.485 98.8287 343.195Z" fill="#E74040"/>
<path d="M82.4867 340.795C82.4867 340.795 81.4672 397.723 84.1059 432.876C84.2258 434.526 85.5452 435.845 87.2243 435.965C89.5632 436.145 93.1614 436.115 97.2094 435.036C98.5887 434.676 99.5782 433.476 99.6981 432.066L106.745 350.393L111.092 327.718L82.4867 340.795Z" fill="#E85049"/>
<path d="M77.959 322.679C78.1989 324.959 79.5782 358.702 83.3563 361.491C87.1344 364.281 123.356 361.611 124.196 358.312C125.036 355.013 123.266 319.77 123.266 319.77L77.959 322.679Z" fill="#28D3E6"/>
<path d="M118.857 306.783C119.337 306.783 138.708 315.931 138.708 315.931L134.48 323.369L123.535 320.58L118.857 306.783Z" fill="#28D3E6"/>
<path d="M83.4452 271.81C88.2128 271.3 100.777 271.3 100.777 271.3C100.777 271.3 102.426 271.78 101.916 271.54C115.679 274.45 116.849 284.767 116.849 284.767L122.606 314.671L130.102 315.331C132.381 320.04 130.162 332.397 130.162 332.397L93.6102 335.247C93.6102 335.247 85.6941 336.267 79.3373 327.508C75.1393 321.72 74.2098 304.323 74.6596 291.636C74.5996 291.636 76.0089 272.56 83.4452 271.81Z" fill="#28D3E6"/>
<path d="M119.577 310.502C119.667 310.532 119.787 310.502 119.847 310.412L121.466 307.832L121.436 307.742L116.999 284.707C116.969 284.497 116.609 281.828 114.45 278.799C112.441 275.979 108.363 272.32 100.567 271.03C100.447 271 100.327 271.09 100.297 271.21C100.267 271.33 100.357 271.45 100.477 271.48C108.123 272.77 112.081 276.309 114.06 279.069C116.189 282.038 116.519 284.767 116.549 284.767V284.797L120.957 307.742L119.427 310.172C119.367 310.292 119.397 310.412 119.487 310.502C119.547 310.502 119.577 310.502 119.577 310.502Z" fill="#21111D"/>
<path d="M127.704 310.862C127.824 310.922 127.944 310.862 128.004 310.742C128.064 310.622 128.004 310.502 127.884 310.442L121.318 307.563C121.198 307.503 121.078 307.563 121.018 307.683C120.958 307.803 121.018 307.923 121.138 307.983L127.704 310.862Z" fill="#21111D"/>
<path d="M85.5137 280.268L89.9814 272.8L97.8075 275.169L100.986 271.78C100.986 271.78 101.676 274.899 101.646 275.169C101.616 275.439 98.0774 279.128 97.6276 279.068C97.1479 279.038 85.5137 280.268 85.5137 280.268Z" fill="#28D3E6"/>
<path d="M86.144 362.541C86.2939 362.541 86.4139 362.421 86.4139 362.301C86.4139 362.151 86.3239 362.031 86.174 362.001C82.4258 361.731 81.8861 358.552 81.0465 353.243C80.8966 352.283 80.7467 351.293 80.5368 350.244C79.2774 343.225 78.7077 326.189 78.7077 326.009C78.7077 325.859 78.5878 325.739 78.4378 325.739C78.2879 325.739 78.168 325.859 78.168 326.009C78.168 326.189 78.7377 343.255 80.027 350.334C80.2069 351.383 80.3869 352.373 80.5368 353.303C81.3764 358.702 81.9461 362.241 86.144 362.541Z" fill="#21111D"/>
<path d="M144.976 294.155L150.103 296.555L150.433 296.705L155.561 299.104L132.352 359.152C131.692 360.831 129.743 361.611 128.124 360.861L115.111 354.772C113.462 353.993 112.832 352.013 113.701 350.423L144.976 294.155Z" fill="#BDBDBD"/>
<path d="M144.197 295.295L155.232 300.454C156.371 300.994 157.72 300.484 158.26 299.344L160.749 294.005L145.577 286.897L143.088 292.236C142.578 293.406 143.058 294.755 144.197 295.295Z" fill="#FFA378"/>
<path d="M146.535 296.705L154.781 300.574C156.25 301.264 157.989 300.634 158.649 299.164L160.988 294.155L160.478 293.916L158.139 298.924C157.6 300.094 156.19 300.604 154.991 300.064L146.775 296.195L146.535 296.705Z" fill="#21111D"/>
<path d="M166.446 293.045C183.338 293.045 197.031 279.348 197.031 262.452C197.031 245.556 183.338 231.858 166.446 231.858C149.555 231.858 135.861 245.556 135.861 262.452C135.861 279.348 149.555 293.045 166.446 293.045Z" fill="#D4EEF4"/>
<path d="M158.466 239.049C152.502 241.208 148.503 245.27 149.535 248.12C150.566 250.97 156.237 251.53 162.201 249.371C168.165 247.211 172.164 243.15 171.132 240.299C170.101 237.449 164.43 236.889 158.466 239.049Z" fill="#F3FFFE"/>
<path d="M131.746 359.824L132.277 360.028L155.18 300.39L154.649 300.186L131.746 359.824Z" fill="#21111D"/>
<path d="M191.423 253.574L191.963 253.454C191.933 253.394 190.374 246.585 185.066 242.536L184.736 242.986C189.864 246.885 191.393 253.484 191.423 253.574Z" fill="#21111D"/>
<path d="M188.394 255.913L188.933 255.793C188.903 255.733 187.344 248.925 182.037 244.875L181.707 245.325C186.834 249.255 188.364 255.853 188.394 255.913Z" fill="#21111D"/>
<path d="M153.463 290.166C138.17 282.997 131.573 264.761 138.74 249.465C145.906 234.168 164.137 227.569 179.43 234.738C194.722 241.906 201.319 260.142 194.152 275.439C186.986 290.736 168.785 297.334 153.463 290.166ZM198.56 277.509C206.866 259.782 199.22 238.637 181.499 230.329C163.777 222.02 142.638 229.669 134.332 247.395C126.026 265.121 133.672 286.267 151.394 294.575C169.145 302.883 190.254 295.235 198.56 277.509Z" fill="#E85049"/>
<path d="M151.302 294.815C169.143 303.183 190.463 295.445 198.829 277.599C207.195 259.753 199.458 238.427 181.617 230.059C173.251 226.13 163.836 225.59 155.08 228.559L155.26 229.099C163.866 226.19 173.161 226.73 181.407 230.599C198.979 238.817 206.565 259.813 198.349 277.389C190.133 294.965 169.143 302.554 151.572 294.335C143.416 290.526 137.089 283.807 133.791 275.439L133.281 275.649C136.58 284.107 142.996 290.946 151.302 294.815Z" fill="#21111D"/>
<path d="M144.435 325.979C144.465 325.379 143.956 324.869 143.356 324.839L139.698 324.599C139.578 324.599 139.488 324.509 139.458 324.389C139.428 324.239 139.518 324.059 139.698 324.059L145.125 323.699C145.755 323.669 146.115 323.129 145.965 322.529C145.815 321.929 145.155 321.48 144.555 321.51L139.038 321.869C138.918 321.869 138.798 321.809 138.768 321.659L138.738 321.569C138.708 321.42 138.798 321.27 138.918 321.24L144.855 319.65C145.425 319.5 145.815 318.9 145.695 318.3C145.545 317.7 144.915 317.31 144.315 317.49L138.348 319.11C138.199 319.14 138.049 319.05 138.019 318.93L137.929 318.66C137.899 318.54 137.959 318.39 138.079 318.33L143.386 316.141C143.926 315.901 144.256 315.271 144.046 314.701C143.836 314.101 143.146 313.831 142.576 314.071C142.576 314.071 138.109 315.751 136.789 316.081L135.56 316.141C137.359 317.82 135.32 315.511 133.851 315.211C132.202 314.881 127.854 318.9 127.854 318.9C127.644 319.26 127.854 320.01 128.184 320.61C129.383 327.058 129.623 328.048 130.133 329.728L136.819 327.688C138.738 327.088 140.777 326.878 142.786 326.998L143.296 327.028C143.896 327.088 144.405 326.608 144.435 325.979Z" fill="#FE9F73"/>
<path d="M130.072 315.301C130.072 315.301 132.291 321.06 130.132 332.367L122.605 332.787L124.405 318.93L130.072 315.301Z" fill="#28D3E6"/>
<path d="M91.5715 270.55C91.5715 270.55 83.2357 269.98 79.1577 272.11C73.1007 275.289 74.54 294.665 74.54 294.665C74.54 294.665 79.6974 292.086 80.0273 291.156C80.3871 290.286 91.5715 270.55 91.5715 270.55Z" fill="#28D3E6"/>
<path d="M94.2396 314.191C94.2696 314.221 94.3296 314.221 94.3595 314.191C94.4795 314.161 94.5694 314.041 94.5394 313.921C94.5095 313.771 91.2411 297.455 89.9817 287.197C89.9517 287.077 89.8618 286.987 89.7119 286.987C89.5919 287.017 89.502 287.107 89.502 287.257C90.7913 297.515 94.0297 313.831 94.0597 314.011C94.1197 314.101 94.1796 314.161 94.2396 314.191Z" fill="#21111D"/>
<path d="M116.819 314.581C116.789 314.611 116.729 314.641 116.669 314.641C116.549 314.641 116.429 314.551 116.429 314.431C116.429 314.251 115.32 295.475 114.24 289.266C114.21 289.147 114.3 289.027 114.42 288.997C114.54 288.967 114.66 289.057 114.69 289.177C115.799 295.415 116.879 314.221 116.879 314.401C116.879 314.461 116.849 314.521 116.819 314.581Z" fill="#21111D"/>
<path d="M88.1229 312.451H88.1529L94.2399 314.071C94.3598 314.101 94.4798 314.041 94.5098 313.921C94.5398 313.801 94.4798 313.681 94.3598 313.651L88.2729 312.032C88.1529 312.002 88.033 312.062 88.003 312.182C87.973 312.272 88.003 312.391 88.1229 312.451Z" fill="#21111D"/>
<path d="M86.2939 314.131C86.3239 314.131 86.3539 314.161 86.3838 314.161C86.7137 314.161 119.277 314.281 129.892 315.541C130.132 316.261 131.212 319.89 130.642 326.489C130.642 326.609 130.732 326.729 130.852 326.729C130.972 326.729 131.092 326.639 131.092 326.519C131.721 319.05 130.312 315.391 130.252 315.211L130.192 315.091L130.042 315.061C119.547 313.801 86.6537 313.681 86.3239 313.651C86.2039 313.651 86.084 313.741 86.084 313.891C86.144 314.011 86.2039 314.101 86.2939 314.131Z" fill="#21111D"/>
<path d="M99.5766 334.467C112.89 334.467 129.172 332.757 130.161 332.637C130.311 332.607 130.401 332.487 130.401 332.337C130.371 332.187 130.251 332.097 130.101 332.097C129.742 332.127 93.6995 335.936 84.644 332.397C75.7085 328.888 75.0788 309.182 75.0788 308.972C75.0788 308.822 74.9589 308.702 74.8089 308.702C74.659 308.702 74.5391 308.822 74.5391 308.972C74.569 309.812 75.1688 329.248 84.4641 332.877C87.4626 334.077 93.1598 334.467 99.5766 334.467Z" fill="#21111D"/>
<path d="M100.388 252.674L101.767 261.912C101.767 261.912 102.367 265.032 99.6984 265.811L100.838 269.92C101.258 271.45 100.568 273.07 99.1586 273.76C98.469 274.09 97.6294 274.39 96.6399 274.54C93.5214 274.989 91.5124 272.92 91.0627 271.78C90.6429 270.64 90.5829 264.942 90.5829 264.942L90.0731 262.212L88.8438 251.504L100.388 252.674Z" fill="#FE9F73"/>
<path d="M88.8426 250.395C88.8426 250.395 85.9641 252.464 88.4528 258.553L89.5323 257.773L88.6327 254.474L88.8426 250.395Z" fill="#21111D"/>
<path d="M93.7607 257.293C93.7308 257.293 93.7008 257.293 93.6708 257.263C93.6108 257.233 93.6108 257.143 93.6408 257.083C93.6408 257.053 95.17 254.954 96.9991 256.034C97.0591 256.064 97.0891 256.154 97.0591 256.214C97.0291 256.273 96.9392 256.303 96.8792 256.273C95.26 255.314 93.9406 257.173 93.8807 257.233C93.8207 257.263 93.7907 257.293 93.7607 257.293Z" fill="#21111D"/>
<path d="M98.797 256.843C98.7671 256.843 98.7371 256.843 98.7071 256.813C98.6471 256.753 98.6471 256.693 98.7071 256.633C98.7671 256.573 99.8165 255.343 100.716 255.883C100.776 255.913 100.806 256.003 100.746 256.063C100.716 256.123 100.626 256.153 100.566 256.093C99.8765 255.643 98.917 256.783 98.917 256.783C98.857 256.813 98.827 256.843 98.797 256.843Z" fill="#21111D"/>
<path d="M95.946 258.994C96.159 258.963 96.3058 258.764 96.274 258.551C96.2421 258.338 96.0437 258.191 95.8308 258.223C95.6179 258.255 95.4711 258.453 95.5029 258.666C95.5347 258.879 95.7331 259.026 95.946 258.994Z" fill="#3F2A49"/>
<path d="M99.9871 257.983C100.2 257.951 100.347 257.752 100.315 257.539C100.283 257.326 100.085 257.18 99.8718 257.211C99.6589 257.243 99.5121 257.442 99.5439 257.655C99.5758 257.868 99.7742 258.015 99.9871 257.983Z" fill="#3F2A49"/>
<path d="M89.7871 262.066C91.081 261.873 91.9732 260.667 91.7798 259.373C91.5864 258.078 90.3808 257.186 89.0869 257.379C87.793 257.573 86.9009 258.779 87.0943 260.073C87.2876 261.367 88.4933 262.26 89.7871 262.066Z" fill="#FE9F73"/>
<path d="M89.4717 261.162C88.9919 261.222 88.6021 260.923 88.4522 260.563C88.2723 260.143 88.3323 259.693 88.6621 259.423C89.1419 259.033 89.6216 259.153 89.8915 259.273C89.7416 259.033 89.5616 258.853 89.3218 258.763C88.812 258.583 88.2723 258.853 88.2723 258.853C88.2423 258.883 88.2123 258.853 88.1823 258.823C88.1524 258.793 88.1823 258.763 88.2123 258.733C88.2423 258.733 88.812 258.433 89.3518 258.643C89.6816 258.763 89.9215 259.033 90.0714 259.423L90.1613 259.633L89.9814 259.483C89.9515 259.453 89.3218 259.003 88.7221 259.513C88.3922 259.783 88.4222 260.203 88.5422 260.473C88.6621 260.743 88.9919 261.072 89.4117 260.982C89.4417 260.982 89.4717 261.012 89.4717 261.042C89.5616 261.132 89.5317 261.162 89.4717 261.162Z" fill="#F07162"/>
<path d="M102.006 260.382C102.006 260.382 103.776 266.531 99.6976 267.371C93.8205 268.57 92.7411 265.271 91.9915 262.542L91.0619 256.813L91.002 255.133C91.4817 255.553 91.8415 256.093 91.9915 256.723C92.3213 258.073 93.1609 261.732 93.5507 261.852C94.0304 262.002 100.987 259.902 102.006 260.382Z" fill="#21111D"/>
<path d="M98.049 260.982C98.019 260.982 97.989 260.982 97.989 260.952C97.959 260.922 97.989 260.892 98.019 260.862L99.2483 260.232L98.3788 257.233C98.3788 257.203 98.3788 257.173 98.4088 257.143C98.4388 257.143 98.4687 257.143 98.4987 257.173L99.3983 260.292L98.049 260.982Z" fill="#F07162"/>
<path d="M91.0013 255.224L89.682 254.324L88.9023 257.413C88.9023 257.413 90.4316 257.443 90.7014 259.003C90.9713 260.562 90.4915 263.112 93.6999 266.201C96.9083 269.291 92.7104 261.012 92.6205 260.712C92.5305 260.412 91.0013 255.224 91.0013 255.224Z" fill="#21111D"/>
<path d="M88.842 250.395C89.8915 248.985 94.1194 247.605 97.4777 249.015C101.256 250.215 100.656 253.874 100.566 253.994L100.506 253.964C100.536 254.054 100.566 254.114 100.596 254.204C100.596 254.204 100.416 253.994 100.056 253.724L98.5272 252.884C97.6876 252.554 96.5782 252.344 95.2288 252.464C93.8795 252.584 92.7401 252.824 91.8105 253.274C91.6906 254.114 91.7206 255.704 92.4702 258.763C93.6396 263.412 90.7011 257.983 89.6216 255.914C89.5317 256.333 89.4717 256.813 89.5017 257.353C89.5017 257.323 86.7131 253.244 88.842 250.395Z" fill="#21111D"/>
<path d="M100.777 255.284C100.777 255.284 100.597 253.364 100.447 252.974C100.297 252.584 95.8894 252.014 93.6405 252.674C91.3616 253.334 96.2492 255.224 96.2792 255.194C96.3091 255.194 100.777 255.284 100.777 255.284Z" fill="#FE9F73"/>
<path d="M92.2909 253.334L89.7422 251.594L92.2909 254.324V253.334Z" fill="#FE9F73"/>
<path d="M100.477 268.661L100.806 271.06C100.806 271.06 98.7374 272.83 97.4181 273.76C94.7794 271.93 90.8513 270.52 90.8513 270.52L90.6114 266.951C85.7239 266.381 80.6564 269.681 81.9457 271.27C83.2051 272.86 89.8318 273.34 91.571 273.91C93.3101 274.48 97.7179 275.829 97.7179 275.829C98.8873 274.959 102.006 271.3 102.006 271.3L105.154 272.17C105.214 268.961 100.477 268.661 100.477 268.661Z" fill="#96BB7C"/>
<path d="M97.7177 276.009C97.7776 276.009 97.8076 275.979 97.8376 275.949L103.355 270.34C103.415 270.28 103.415 270.16 103.355 270.1C103.295 270.04 103.175 270.04 103.115 270.1L97.5977 275.709C97.5377 275.769 97.5377 275.889 97.5977 275.949C97.6277 275.979 97.6877 276.009 97.7177 276.009Z" fill="#3F2A49"/>
<path d="M135.081 311.941L131.902 317.67L136.76 316.081L135.081 311.941Z" fill="#FF424D"/>
<path d="M106.115 442.774H116.729L121.047 437.975L128.933 442.774H130.642C131.212 442.774 131.752 443.194 131.872 443.764C132.022 444.544 131.422 445.264 130.672 445.264H105.965C105.785 445.264 105.635 445.114 105.635 444.934V443.284C105.635 442.984 105.845 442.774 106.115 442.774Z" fill="#BDBDBD"/>
<path d="M106.205 442.774V438.305C106.205 438.305 108.004 435.845 110.703 437.105C110.703 437.105 114.811 440.104 118.439 436.475L127.465 440.584C127.465 440.584 129.923 441.424 130.613 442.804H106.205V442.774Z" fill="#96BB7C"/>
<path d="M106.295 438.305H106.115V442.744H106.295V438.305Z" fill="#3F2A49"/>
<path d="M114.39 438.365C114.75 438.365 114.93 438.335 114.96 438.335L114.93 438.155C114.9 438.155 112.771 438.455 110.762 437.045L110.672 437.195C112.111 438.215 113.61 438.365 114.39 438.365Z" fill="#3F2A49"/>
<path d="M108.393 441.964L108.483 441.784L107.344 441.004L107.254 441.154L108.393 441.964Z" fill="#3F2A49"/>
<path d="M109.234 441.724L109.324 441.574L108.154 440.764L108.064 440.944L109.234 441.724Z" fill="#3F2A49"/>
<path d="M131.482 445.053C131.782 444.813 131.932 444.424 131.932 444.034C131.932 443.284 131.362 442.714 130.642 442.714H106.235C105.845 442.714 105.545 443.044 105.545 443.434V444.663H105.725V443.434C105.725 443.134 105.965 442.894 106.235 442.894H130.642C131.272 442.894 131.752 443.404 131.752 444.034C131.752 444.364 131.602 444.693 131.362 444.903L131.482 445.053Z" fill="#3F2A49"/>
<path d="M130.552 442.834L130.702 442.744C130.672 442.714 130.192 441.664 128.333 440.854C126.534 440.074 118.528 436.415 118.468 436.385L118.408 436.565C118.498 436.595 126.474 440.224 128.273 441.034C130.072 441.814 130.552 442.804 130.552 442.834Z" fill="#3F2A49"/>
<path d="M84.9739 442.774H95.5886L99.9065 437.975L107.793 442.774H109.502C110.071 442.774 110.611 443.194 110.731 443.764C110.881 444.544 110.281 445.264 109.532 445.264H84.824C84.6441 445.264 84.4941 445.114 84.4941 444.934V443.284C84.4941 442.984 84.704 442.774 84.9739 442.774Z" fill="#BDBDBD"/>
<path d="M85.0645 442.774V438.305C85.0645 438.305 86.8636 435.845 89.5622 437.105C89.5622 437.105 93.6702 440.104 97.2984 436.475L106.324 440.584C106.324 440.584 108.783 441.424 109.472 442.804H85.0645V442.774Z" fill="#96BB7C"/>
<path d="M85.1545 438.305H84.9746V442.744H85.1545V438.305Z" fill="#3F2A49"/>
<path d="M93.2806 438.365C93.6405 438.365 93.8204 438.335 93.8504 438.335L93.8204 438.155C93.7904 438.155 91.6615 438.455 89.6525 437.045L89.5625 437.195C90.9718 438.215 92.4711 438.365 93.2806 438.365Z" fill="#3F2A49"/>
<path d="M87.2527 441.964L87.3726 441.784L86.2032 441.004L86.1133 441.154L87.2527 441.964Z" fill="#3F2A49"/>
<path d="M88.0932 441.724L88.1832 441.574L87.0438 440.764L86.9238 440.944L88.0932 441.724Z" fill="#3F2A49"/>
<path d="M110.341 445.053C110.641 444.813 110.791 444.424 110.791 444.034C110.791 443.284 110.221 442.714 109.502 442.714H85.094C84.7041 442.714 84.4043 443.044 84.4043 443.434V444.663H84.5842V443.434C84.5842 443.134 84.8241 442.894 85.094 442.894H109.502C110.132 442.894 110.611 443.404 110.611 444.034C110.611 444.364 110.461 444.693 110.221 444.903L110.341 445.053Z" fill="#3F2A49"/>
<path d="M109.443 442.834L109.593 442.744C109.563 442.714 109.083 441.664 107.224 440.854C105.425 440.074 97.4188 436.415 97.3588 436.385L97.2988 436.565C97.3888 436.595 105.365 440.224 107.164 441.034C108.933 441.814 109.443 442.804 109.443 442.834Z" fill="#3F2A49"/>
<path d="M155.95 477.537C155.95 477.537 149.803 492.983 154.96 504.651L37.0286 505.641L26.1441 504.651L16.5488 498.712V489.624L19.2175 482.096L27.9132 477.537H155.95Z" fill="#E0E7E1"/>
<path d="M31.512 507.14H158.919C159.758 507.14 160.418 506.48 160.418 505.641C160.418 504.801 159.758 504.141 158.919 504.141H31.512C23.8358 504.141 17.5689 498.322 17.5689 491.184C17.5689 484.045 23.8358 478.226 31.512 478.226H158.919C159.758 478.226 160.418 477.567 160.418 476.727C160.418 475.887 159.758 475.227 158.919 475.227H31.512C22.1566 475.227 14.5704 482.396 14.5704 491.184C14.5404 500.002 22.1566 507.14 31.512 507.14Z" fill="#FFA378"/>
<path d="M154.212 491.544H91.6931C91.5132 491.544 91.3633 491.394 91.3633 491.214C91.3633 491.034 91.5132 490.884 91.6931 490.884H154.212C154.392 490.884 154.542 491.034 154.542 491.214C154.542 491.394 154.392 491.544 154.212 491.544Z" fill="white"/>
<path d="M82.8765 491.544H22.1267C21.9468 491.544 21.7969 491.394 21.7969 491.214C21.7969 491.034 21.9468 490.884 22.1267 490.884H82.8765C83.0564 490.884 83.2063 491.034 83.2063 491.214C83.2063 491.394 83.0564 491.544 82.8765 491.544Z" fill="white"/>
<path d="M54.9316 497.512H23.7771C23.5972 497.512 23.4473 497.362 23.4473 497.182C23.4473 497.002 23.5972 496.853 23.7771 496.853H54.9316C55.1115 496.853 55.2614 497.002 55.2614 497.182C55.2614 497.362 55.1115 497.512 54.9316 497.512Z" fill="white"/>
<path d="M154.212 497.512H59.5193C59.3394 497.512 59.1895 497.362 59.1895 497.182C59.1895 497.002 59.3394 496.853 59.5193 496.853H154.212C154.392 496.853 154.542 497.002 154.542 497.182C154.542 497.362 154.392 497.512 154.212 497.512Z" fill="white"/>
<path d="M158.919 507.5H31.5123C21.9771 507.5 14.2109 500.182 14.2109 491.214C14.2109 482.246 21.9771 474.927 31.5123 474.927H158.919C159.938 474.927 160.748 475.737 160.748 476.757C160.748 477.777 159.938 478.586 158.919 478.586C158.739 478.586 158.589 478.436 158.589 478.257C158.589 478.077 158.739 477.927 158.919 477.927C159.549 477.927 160.088 477.417 160.088 476.757C160.088 476.127 159.579 475.587 158.919 475.587H31.5123C22.3369 475.587 14.9006 482.606 14.9006 491.214C14.9006 499.822 22.3669 506.841 31.5123 506.841H158.919C159.549 506.841 160.088 506.331 160.088 505.671C160.088 505.011 159.579 504.501 158.919 504.501C158.739 504.501 158.589 504.351 158.589 504.171C158.589 503.991 158.739 503.841 158.919 503.841C159.938 503.841 160.748 504.651 160.748 505.671C160.748 506.661 159.938 507.5 158.919 507.5Z" fill="#21111D"/>
<path d="M138.739 485.215C138.739 485.215 142.757 495.203 140.449 502.581L137.18 497.542C137.18 497.542 134.961 500.212 133.582 502.581C133.582 502.581 131.093 486.145 126.266 485.215H138.739Z" fill="#7FC6A6"/>
<path d="M154.212 485.545H23.7771C23.5972 485.545 23.4473 485.395 23.4473 485.215C23.4473 485.035 23.5972 484.885 23.7771 484.885H154.212C154.392 484.885 154.542 485.035 154.542 485.215C154.542 485.395 154.392 485.545 154.212 485.545Z" fill="white"/>
<path d="M16.5195 447.783C16.5195 447.783 22.2167 462.12 17.4491 472.948L126.895 473.877L137 472.948L145.905 467.429V458.971L143.416 451.982L135.35 447.753H16.5195V447.783Z" fill="#E0E7E1"/>
<path d="M132.022 475.257H13.7609C12.9812 475.257 12.3516 474.627 12.3516 473.848C12.3516 473.068 12.9812 472.438 13.7609 472.438H132.022C139.159 472.438 144.976 467.039 144.976 460.41C144.976 453.782 139.159 448.383 132.022 448.383H13.7609C12.9812 448.383 12.3516 447.753 12.3516 446.973C12.3516 446.193 12.9812 445.563 13.7609 445.563H132.022C140.688 445.563 147.764 452.192 147.764 460.38C147.764 468.599 140.688 475.257 132.022 475.257Z" fill="#96BB7C"/>
<path d="M109.803 460.77H51.7517C51.5718 460.77 51.4219 460.62 51.4219 460.44C51.4219 460.26 51.5718 460.11 51.7517 460.11H109.773C109.953 460.11 110.103 460.26 110.103 460.44C110.133 460.62 109.983 460.77 109.803 460.77Z" fill="white"/>
<path d="M140.717 460.77H84.3455C84.1655 460.77 84.0156 460.62 84.0156 460.44C84.0156 460.26 84.1655 460.11 84.3455 460.11H140.717C140.897 460.11 141.047 460.26 141.047 460.44C141.047 460.62 140.897 460.77 140.717 460.77Z" fill="white"/>
<path d="M139.187 466.319H110.252C110.072 466.319 109.922 466.169 109.922 465.989C109.922 465.809 110.072 465.659 110.252 465.659H139.187C139.367 465.659 139.517 465.809 139.517 465.989C139.517 466.169 139.367 466.319 139.187 466.319Z" fill="white"/>
<path d="M139.188 455.221H18.1384C17.9585 455.221 17.8086 455.071 17.8086 454.891C17.8086 454.711 17.9585 454.562 18.1384 454.562H139.218C139.398 454.562 139.548 454.711 139.548 454.891C139.518 455.071 139.368 455.221 139.188 455.221Z" fill="white"/>
<path d="M132.022 475.587H13.7606C12.8011 475.587 12.0215 474.807 12.0215 473.847C12.0215 472.888 12.8011 472.108 13.7606 472.108C13.9405 472.108 14.0905 472.258 14.0905 472.438C14.0905 472.618 13.9405 472.768 13.7606 472.768C13.1909 472.768 12.7111 473.248 12.7111 473.817C12.7111 474.387 13.1909 474.867 13.7606 474.867H132.022C140.508 474.867 147.434 468.389 147.434 460.41C147.434 452.432 140.538 445.953 132.022 445.953H13.7606C13.1909 445.953 12.7111 446.433 12.7111 447.003C12.7111 447.603 13.1909 448.053 13.7606 448.053C13.9405 448.053 14.0905 448.203 14.0905 448.383C14.0905 448.563 13.9405 448.713 13.7606 448.713C12.8011 448.713 12.0215 447.933 12.0215 446.973C12.0215 446.013 12.8011 445.233 13.7606 445.233H132.022C140.867 445.233 148.094 452.012 148.094 460.38C148.094 468.778 140.867 475.587 132.022 475.587Z" fill="#21111D"/>
<path d="M87.3133 465.989C87.3133 465.989 83.2953 475.977 85.6041 483.355L88.8725 478.316C88.8725 478.316 91.0914 480.986 92.4707 483.355C92.4707 483.355 94.9595 466.919 99.7871 465.989H87.3133Z" fill="#4CB7D8"/>
<path d="M106.025 466.319H18.1384C17.9585 466.319 17.8086 466.169 17.8086 465.989C17.8086 465.809 17.9585 465.659 18.1384 465.659H106.025C106.205 465.659 106.355 465.809 106.355 465.989C106.355 466.169 106.205 466.319 106.025 466.319Z" fill="white"/>
<path d="M17.957 384.256C17.957 384.256 19.1564 367.43 25.6932 370.699C32.2299 373.969 37.5373 395.384 38.2569 396.014C38.9766 396.644 38.7667 416.23 38.7667 416.23L31.1804 412.39C31.1505 412.42 29.1115 365.6 17.957 384.256Z" fill="#96BB7C"/>
<path d="M25.2734 349.434C25.2734 349.434 39.9062 362.511 43.8942 384.946C47.8822 407.381 35.2885 413.98 35.2885 413.98C35.2885 413.98 33.4594 366.83 25.2734 349.434Z" fill="#28D3E6"/>
<path d="M52.3802 417.009C52.3802 417.009 54.839 369.259 67.1629 348.534C67.1629 348.534 45.4836 361.461 38.3172 395.414C37.9274 397.333 37.6875 399.463 37.3577 401.503C37.0279 403.632 36.8479 405.522 36.9079 407.381C36.9979 410.711 37.4476 413.56 37.5976 415.66C38.767 433.806 52.3802 417.009 52.3802 417.009Z" fill="#96BB7C"/>
<path d="M51.9616 396.733C52.8012 389.925 55.3799 383.446 59.5479 377.987C62.5464 374.058 66.0247 371.059 68.7233 373.188C74.7503 377.927 75.9497 407.441 75.9497 407.441C75.9497 407.441 69.1431 387.016 66.1746 388.365C63.2061 389.715 60.4174 417.459 60.4174 417.459L49.293 418.389L51.9616 396.733Z" fill="#28D3E6"/>
<path d="M36.7883 415.36C36.3386 404.922 37.6279 394.934 40.6864 385.606C43.1152 378.168 46.6534 371.149 51.1812 364.73C58.9173 353.843 67.0133 348.444 67.0733 348.384L67.2832 348.684C67.1932 348.744 59.1572 354.083 51.4511 364.94C44.3446 374.958 36.0987 391.815 37.1482 415.33L36.7883 415.36Z" fill="#21111D"/>
<path d="M35.0788 414.01C35.0788 413.89 34.599 402.073 33.1597 388.246C31.8104 375.528 29.3216 358.462 25.0938 349.494L25.4236 349.344C29.6815 358.342 32.1702 375.438 33.5196 388.216C34.9888 402.043 35.4386 413.86 35.4386 413.98L35.0788 414.01Z" fill="#21111D"/>
<path d="M30.9714 412.42C30.9714 412.33 30.6115 404.652 29.5021 396.854C28.0028 386.596 25.8739 380.837 23.2952 380.177C21.7659 379.787 20.0268 381.197 18.1377 384.346L17.8379 384.166C19.8469 380.867 21.706 379.397 23.4151 379.847C26.1737 380.567 28.3627 386.266 29.8919 396.824C31.0313 404.622 31.3612 412.33 31.3612 412.42H30.9714Z" fill="#21111D"/>
<path d="M49.4731 418.389L49.1133 418.359L51.782 396.734C52.6215 389.835 55.2602 383.327 59.3982 377.898C62.0069 374.448 64.3457 372.589 66.2947 372.349C67.2243 372.229 68.0639 372.469 68.8435 373.069C71.3922 375.078 73.3712 381.467 74.7805 392.115C75.83 400.003 76.1298 407.411 76.1298 407.471H75.77C75.77 407.171 74.5107 377.988 68.6036 373.339C67.9139 372.799 67.1643 372.589 66.3247 372.679C64.4656 372.919 62.2168 374.748 59.668 378.108C55.5901 383.476 52.9814 389.955 52.1118 396.794L49.4731 418.389Z" fill="#21111D"/>
<path d="M61.3901 391.877L61.0703 391.712L58.7336 396.243L59.0534 396.408L61.3901 391.877Z" fill="#21111D"/>
<path d="M61.3777 394.968L61.0625 394.794L58.7187 399.05L59.0339 399.224L61.3777 394.968Z" fill="#21111D"/>
<path d="M37.128 369.059L35.127 364.665L34.7995 364.814L36.8005 369.209L37.128 369.059Z" fill="#21111D"/>
<path d="M37.1262 371.172L35.4258 368.103L35.111 368.277L36.8115 371.347L37.1262 371.172Z" fill="#21111D"/>
<path d="M27.3344 374.046L23.9414 372.316L23.778 372.637L27.171 374.367L27.3344 374.046Z" fill="#21111D"/>
<path d="M27.3831 375.535L25.3594 374.304L25.1724 374.611L27.1961 375.843L27.3831 375.535Z" fill="#21111D"/>
<path d="M37.2682 444.793H37.2466L37.2251 444.795C36.232 444.881 35.3345 444.502 34.4997 443.7C33.6544 442.887 32.8945 441.657 32.2198 440.107C30.8714 437.008 29.9233 432.771 29.2617 428.47C28.6013 424.176 28.2315 419.854 28.0268 416.602C27.9245 414.976 27.8635 413.62 27.8282 412.67C27.8117 412.228 27.8008 411.874 27.7938 411.622C36.5927 410.394 53.8335 410.394 62.6048 411.622C62.5978 411.873 62.5869 412.228 62.5704 412.67C62.535 413.62 62.4741 414.976 62.3718 416.602C62.1671 419.854 61.7973 424.176 61.1369 428.47C60.4753 432.771 59.5272 437.008 58.1788 440.107C57.5041 441.657 56.7442 442.887 55.8989 443.7C55.0641 444.502 54.1666 444.881 53.1735 444.795L53.152 444.793H53.1304H45.784H44.6146H37.2682Z" fill="#FFA378" stroke="#737373"/>
<path d="M59.6578 415.91L59.3965 415.662L49.1701 426.464L49.4314 426.712L59.6578 415.91Z" fill="#21111D"/>
<path d="M56.6543 422.862L56.3828 422.626L50.7554 429.099L51.0269 429.335L56.6543 422.862Z" fill="#21111D"/>
<path d="M369.826 292.746C369.826 292.746 366.108 290.916 362.69 291.906C360.711 292.476 359.302 294.245 359.212 296.315L359.092 298.325L369.706 294.455C369.706 294.455 371.296 295.325 371.176 295.085C371.056 294.845 369.826 292.746 369.826 292.746Z" fill="#FE9F73"/>
<path d="M359.212 296.105L358.762 304.594C358.762 304.594 358.462 307.623 361.101 308.133L360.381 312.152C360.112 313.652 360.951 315.151 362.36 315.661C363.05 315.931 363.89 316.141 364.849 316.171C367.878 316.321 369.647 314.132 369.977 313.022C370.276 311.882 369.827 306.423 369.827 306.423L370.067 303.754L370.276 293.376L359.212 296.105Z" fill="#FE9F73"/>
<path d="M366.319 300.484C366.349 300.484 366.379 300.484 366.409 300.454C366.469 300.394 366.469 300.334 366.409 300.274C366.379 300.244 364.76 298.385 363.081 299.584C363.021 299.614 363.021 299.704 363.051 299.764C363.081 299.824 363.171 299.824 363.231 299.794C364.7 298.745 366.139 300.364 366.199 300.454C366.259 300.484 366.289 300.484 366.319 300.484Z" fill="#21111D"/>
<path d="M361.16 299.464C361.19 299.464 361.22 299.464 361.25 299.434C361.31 299.374 361.31 299.314 361.25 299.254C361.19 299.194 360.051 298.115 359.241 298.715C359.181 298.745 359.181 298.834 359.211 298.894C359.241 298.954 359.331 298.954 359.391 298.924C360.021 298.445 361.04 299.434 361.07 299.434C361.1 299.434 361.13 299.464 361.16 299.464Z" fill="#21111D"/>
<path d="M364.13 301.294C364.345 301.294 364.52 301.119 364.52 300.904C364.52 300.689 364.345 300.514 364.13 300.514C363.915 300.514 363.74 300.689 363.74 300.904C363.74 301.119 363.915 301.294 364.13 301.294Z" fill="#252B42"/>
<path d="M360.112 300.694C360.328 300.694 360.502 300.52 360.502 300.304C360.502 300.089 360.328 299.915 360.112 299.915C359.897 299.915 359.723 300.089 359.723 300.304C359.723 300.52 359.897 300.694 360.112 300.694Z" fill="#252B42"/>
<path d="M369.826 292.626C369.826 292.626 373.035 292.656 373.724 295.505C374.384 298.355 372.915 299.764 372.855 300.604C372.795 301.444 373.065 307.113 369.107 306.483L368.537 297.095L370.126 293.436L369.826 292.626Z" fill="#21111D"/>
<path d="M369.168 303.304C370.426 303.304 371.446 302.283 371.446 301.024C371.446 299.765 370.426 298.745 369.168 298.745C367.909 298.745 366.889 299.765 366.889 301.024C366.889 302.283 367.909 303.304 369.168 303.304Z" fill="#FE9F73"/>
<path d="M369.257 302.434C369.737 302.464 370.066 302.134 370.186 301.774C370.336 301.354 370.216 300.934 369.887 300.724C369.407 300.394 368.927 300.574 368.687 300.694C368.807 300.454 368.957 300.274 369.167 300.154C369.617 299.944 370.186 300.154 370.186 300.154C370.216 300.154 370.246 300.154 370.276 300.124C370.276 300.094 370.276 300.064 370.246 300.034C370.216 300.034 369.647 299.794 369.137 300.034C368.837 300.184 368.627 300.454 368.507 300.844L368.447 301.054L368.627 300.904C368.657 300.874 369.227 300.394 369.827 300.814C370.156 301.054 370.186 301.444 370.096 301.714C370.006 301.984 369.737 302.314 369.287 302.284C369.257 302.284 369.227 302.314 369.227 302.344C369.197 302.404 369.197 302.434 369.257 302.434Z" fill="#F07162"/>
<path d="M367.397 305.913C367.397 305.913 366.947 310.982 360.561 311.132L361.1 308.163C361.1 308.163 365.178 309.212 367.397 305.913Z" fill="#F07162"/>
<path d="M362.271 303.364C362.301 303.364 362.331 303.364 362.331 303.334C362.331 303.304 362.331 303.274 362.301 303.244L361.042 302.764L361.612 299.794C361.612 299.764 361.582 299.734 361.552 299.734C361.522 299.734 361.492 299.764 361.492 299.794L360.922 302.854L362.271 303.364Z" fill="#F07162"/>
<path d="M369.886 307.173L369.676 302.854L368.597 302.914L368.387 307.203L369.886 307.173Z" fill="#FE9F73"/>
<path d="M369.226 292.506C369.226 292.506 369.886 294.335 368.507 297.215C367.127 300.124 371.715 296.285 371.715 296.285C371.715 296.285 371.625 291.906 369.226 292.506Z" fill="#21111D"/>
<path d="M368.507 297.215C368.507 297.215 358.852 296.135 358.402 293.825C357.923 291.516 360.201 291.576 360.201 291.576C360.201 291.576 359.932 288.337 362.81 289.446C365.689 290.556 371.116 290.706 372.495 293.496C373.845 296.315 368.507 297.215 368.507 297.215Z" fill="#21111D"/>
<path d="M368.627 298.834L368.117 300.574L367.727 300.034C367.727 300.034 367.038 297.455 367.667 296.255C368.297 295.055 370.486 296.945 370.486 296.945L368.627 298.834Z" fill="#21111D"/>
<path d="M360.531 304.353C360.561 304.353 363.2 304.263 363.2 304.263C363.2 304.263 362.87 305.343 361.911 305.373C360.921 305.403 360.531 304.353 360.531 304.353Z" fill="#FBFDFC"/>
<path d="M373.275 504.471L385.209 504.621L385.389 493.374L373.515 491.904L373.275 504.471Z" fill="#FE9F73"/>
<path d="M346.287 504.471L358.221 504.621L358.401 493.374L346.497 491.904L346.287 504.471Z" fill="#FE9F73"/>
<path d="M345.958 403.392C347.787 405.732 348.237 403.422 348.237 403.422C349.347 404.592 349.916 404.352 350.186 403.962C350.396 403.692 350.426 403.302 350.336 402.972C350.006 401.923 348.957 398.743 348.207 396.794C348.387 395.444 350.636 396.014 351.775 396.704C352.345 397.064 353.365 397.124 352.435 395.594C351.685 394.334 349.107 392.385 349.107 392.385L350.306 384.886L339.841 385.366C339.841 385.366 339.422 393.974 339.362 395.294C339.302 396.584 340.501 401.023 341.58 402.403C343.499 404.922 343.709 403.422 343.709 403.422C345.928 405.852 345.958 403.392 345.958 403.392Z" fill="#FE9F73"/>
<path d="M346.707 400.603C346.707 400.543 346.737 400.483 346.827 400.453C346.917 400.423 347.007 400.483 347.037 400.543C347.427 401.683 348.416 403.332 348.416 403.332C348.446 403.392 348.446 403.512 348.356 403.542C348.296 403.572 348.176 403.572 348.146 403.482C348.116 403.422 347.157 401.803 346.737 400.633C346.707 400.633 346.707 400.603 346.707 400.603Z" fill="#F07162"/>
<path d="M344.729 400.633C344.729 400.573 344.788 400.483 344.848 400.483C344.938 400.453 345.028 400.513 345.028 400.603C345.328 402.043 346.078 403.302 346.078 403.302C346.108 403.362 346.108 403.482 346.018 403.512C345.958 403.542 345.838 403.542 345.808 403.452C345.808 403.422 345.028 402.163 344.729 400.633Z" fill="#F07162"/>
<path d="M342.48 401.023C342.48 400.963 342.54 400.873 342.6 400.873C342.69 400.843 342.78 400.903 342.78 400.993C343.08 402.223 343.8 403.333 343.83 403.363C343.89 403.423 343.86 403.542 343.8 403.572C343.74 403.632 343.62 403.602 343.59 403.542C343.56 403.482 342.81 402.373 342.51 401.083C342.48 401.023 342.48 401.023 342.48 401.023Z" fill="#F07162"/>
<path d="M338.881 388.605L339.061 392.265C339.061 392.265 340.95 393.524 344.458 393.434L343.589 388.605H338.881Z" fill="#E2F2F1"/>
<path d="M367.367 377.508C367.367 377.508 365.778 452.132 360.35 495.203C360.35 495.203 353.094 497.482 343.979 493.223L343.589 383.237L342.27 366.77L367.367 377.508Z" fill="#E74040"/>
<path d="M386.499 378.228C386.499 378.228 389.677 451.772 386.109 495.113C386.109 495.113 379.332 499.372 370.037 495.683L358.822 390.045L354.055 361.761L386.499 378.228Z" fill="#E85049"/>
<path d="M376.933 497.392C382.061 497.392 386.199 495.413 386.259 495.383L386.379 495.323L386.409 495.203C389.467 478.676 387.518 397.184 387.488 396.374C387.488 396.224 387.368 396.134 387.248 396.134C387.098 396.134 387.008 396.254 387.008 396.404C387.038 397.214 388.957 478.226 385.959 494.993C384.939 495.443 377.263 498.712 370.217 495.503C370.097 495.443 369.947 495.503 369.887 495.623C369.827 495.743 369.887 495.893 370.007 495.953C372.316 497.003 374.714 497.392 376.933 497.392Z" fill="#252B42"/>
<path d="M355.104 496.013C356.754 496.013 358.523 495.863 360.382 495.443C360.532 495.413 360.592 495.293 360.562 495.143C360.532 494.993 360.382 494.933 360.262 494.963C351.926 496.793 345.209 493.584 344.19 493.074L343.8 389.595C343.8 389.446 343.56 389.176 343.56 389.026C343.56 385.456 343.56 389.356 343.56 389.356C343.41 389.356 343.32 389.476 343.32 389.595L343.71 493.374L343.83 493.434C343.89 493.464 348.568 496.013 355.104 496.013Z" fill="#252B42"/>
<path d="M346.978 314.281C346.978 314.281 341.04 316.711 340.021 321.42C339.031 326.129 336.453 383.027 338.222 388.606H346.948V314.281H346.978Z" fill="#28D3E6"/>
<path d="M389.587 347.064L385.629 391.905C385.629 391.905 362.12 397.094 343.859 387.496C343.859 387.496 346.768 317.91 347.368 315.091C348.057 311.762 366.258 311.492 373.844 312.301C373.844 312.301 385.629 312.002 391.926 315.481L389.587 347.064Z" fill="#BDBDBD"/>
<path d="M390.067 336.957V394.544C390.067 394.544 375.044 397.424 367.758 394.544C367.758 394.544 367.788 314.371 370.786 311.942C371.146 311.942 378.642 312.092 383.98 312.752C389.317 313.412 390.067 336.957 390.067 336.957Z" fill="#28D3E6"/>
<path d="M358.673 311.942C358.673 311.942 357.173 382.457 355.674 392.925C355.674 392.925 349.617 393.315 341.881 390.645C341.881 390.645 343.26 317.101 345.269 315.121C347.278 313.142 358.673 311.942 358.673 311.942Z" fill="#28D3E6"/>
<path d="M369.796 312.032C369.796 312.032 360.351 311.822 358.762 312.092C358.762 312.092 359.991 315.811 360.201 315.961C360.411 316.111 366.528 317.371 366.528 317.371C366.528 317.371 368.627 316.141 368.717 315.721C368.807 315.301 369.796 312.032 369.796 312.032Z" fill="#BDBDBD"/>
<path d="M390.067 355.493C390.217 355.493 390.307 355.373 390.307 355.253V343.375C390.307 343.225 390.187 343.135 390.067 343.135C389.947 343.135 389.827 343.255 389.827 343.375V355.253C389.797 355.373 389.917 355.493 390.067 355.493Z" fill="#252B42"/>
<path d="M367.728 394.784C367.878 394.784 367.968 394.664 367.968 394.544C367.848 343.495 369.257 325.769 369.287 325.589C369.287 325.439 369.197 325.319 369.048 325.319C368.898 325.319 368.778 325.409 368.778 325.559C368.778 325.739 367.338 343.495 367.458 394.544C367.488 394.694 367.608 394.784 367.728 394.784Z" fill="#252B42"/>
<path d="M341.88 390.885C342.03 390.885 342.12 390.765 342.12 390.645C341.64 368.75 345.628 321.36 345.658 320.88C345.658 320.76 345.568 320.64 345.418 320.61C345.269 320.61 345.149 320.7 345.149 320.82C345.119 321.3 341.131 368.69 341.61 390.645C341.64 390.765 341.76 390.885 341.88 390.885Z" fill="#252B42"/>
<path d="M358.372 326.579C358.522 326.579 358.612 326.459 358.612 326.339L358.942 311.672L358.672 311.702C358.162 311.732 346.108 312.722 342.57 316.861C342.48 316.981 342.48 317.131 342.6 317.221C342.69 317.311 342.87 317.311 342.96 317.191C346.108 313.531 356.603 312.392 358.462 312.212L358.132 326.339C358.102 326.459 358.222 326.579 358.372 326.579C358.342 326.579 358.372 326.579 358.372 326.579Z" fill="#252B42"/>
<path d="M409.258 364.431C407.728 356.632 411.087 351.713 413.605 349.134C414.475 351.623 415.105 354.143 415.345 356.632C415.704 359.991 413.875 364.431 411.117 369.08C410.307 367.91 409.647 366.38 409.258 364.431Z" fill="#E85049"/>
<path d="M389.286 318.81C389.226 318.81 389.196 318.78 389.136 318.75C387.487 316.561 384.789 315.661 384.759 315.661C384.669 315.631 384.609 315.541 384.639 315.451C384.669 315.361 384.759 315.301 384.849 315.331C384.969 315.361 387.667 316.261 389.376 318.54C389.436 318.63 389.406 318.72 389.346 318.78C389.346 318.81 389.316 318.81 389.286 318.81Z" fill="#21111D"/>
<path d="M388.956 320.4C388.896 320.4 388.866 320.37 388.806 320.34C387.157 318.151 384.459 317.251 384.429 317.251C384.339 317.221 384.279 317.131 384.309 317.041C384.339 316.951 384.429 316.891 384.518 316.921C384.638 316.951 387.337 317.851 389.046 320.13C389.106 320.22 389.076 320.31 389.016 320.37C389.016 320.4 388.986 320.4 388.956 320.4Z" fill="#21111D"/>
<path d="M382.031 496.763C382.181 496.763 382.271 496.643 382.271 496.523L382.721 467.009C382.721 466.859 382.601 466.769 382.481 466.769C382.331 466.769 382.241 466.889 382.241 467.009L381.791 496.523C381.791 496.643 381.881 496.763 382.031 496.763Z" fill="#252B42"/>
<path d="M354.803 496.013C354.923 496.013 355.043 495.923 355.043 495.773L356.692 467.039C356.692 466.889 356.602 466.769 356.452 466.769C356.302 466.769 356.182 466.859 356.182 467.009L354.533 495.743C354.563 495.893 354.653 496.013 354.803 496.013Z" fill="#252B42"/>
<path d="M312.617 313.833L298.072 330.911L444.081 455.338L458.627 438.26L312.617 313.833Z" fill="#E85049"/>
<path d="M308.145 319.084L302.545 325.66L448.554 450.087L454.154 443.512L308.145 319.084Z" fill="#FFA378"/>
<path d="M443.36 425.247L428.814 442.325L433.106 445.981L447.651 428.904L443.36 425.247Z" fill="#252B42"/>
<path d="M459.182 453.482C455.164 458.191 448.088 458.761 443.38 454.742L433.125 445.984L447.668 428.917L457.923 437.676C462.63 441.695 463.2 448.773 459.182 453.482Z" fill="#BDBDBD"/>
<path d="M283.768 303.994L298.1 330.928C299.51 332.128 301.669 331.948 302.928 330.508C304.157 329.068 304.008 326.909 302.598 325.679C304.008 326.879 306.436 326.399 307.966 324.599C309.495 322.8 309.615 320.34 308.175 319.11C309.585 320.31 311.744 320.13 313.003 318.691C314.232 317.251 314.082 315.091 312.673 313.862L283.768 303.994Z" fill="#F7D6B2"/>
<path d="M298.07 330.928C298.07 330.928 302.808 329.878 302.538 325.679L305.567 328.259L301.099 333.508L298.07 330.928Z" fill="#E85049"/>
<path d="M308.146 319.11C308.146 319.11 312.884 318.06 312.614 313.861L315.643 316.441L311.175 321.69L308.146 319.11Z" fill="#E85049"/>
<path d="M302.568 325.679C302.568 325.679 307.846 325.289 308.146 319.11L311.474 321.93L305.897 328.498L302.568 325.679Z" fill="#FFA378"/>
<path d="M288.506 312.932C288.506 312.932 292.734 312.062 293.334 307.263L283.738 303.994L288.506 312.932Z" fill="#737373"/>
<path d="M459.482 453.722C463.32 449.193 462.75 444.964 461.611 442.234C460.381 439.295 458.282 437.465 458.192 437.375L312.855 313.502L312.795 313.472L283.02 303.304L292.255 320.64L292.915 320.28L284.609 304.623L312.495 314.161L457.743 437.945C457.773 437.975 459.812 439.775 460.981 442.534C462.51 446.224 461.851 449.823 458.972 453.212L459.482 453.722Z" fill="#252B42"/>
<path d="M411.214 426.834L327.24 355.18L326.754 355.751L410.727 427.405L411.214 426.834Z" fill="#252B42"/>
<path d="M428.961 428.265L429.098 427.528L420.754 425.982L420.617 426.719L428.961 428.265Z" fill="#252B42"/>
<path d="M450.068 449.394L450.205 448.656L445.458 447.776L445.322 448.514L450.068 449.394Z" fill="#252B42"/>
<path d="M452.903 452.545L453.039 451.808L448.292 450.928L448.156 451.666L452.903 452.545Z" fill="#252B42"/>
<path d="M431.188 432.133L431.324 431.396L422.98 429.849L422.844 430.587L431.188 432.133Z" fill="#252B42"/>
<path d="M433.437 446.323L447.951 429.219L447.38 428.734L432.866 445.838L433.437 446.323Z" fill="#252B42"/>
<path d="M375.703 399.463C372.765 399.853 374.054 397.874 374.054 397.874C372.465 397.934 372.195 397.364 372.285 396.914C372.345 396.584 372.555 396.284 372.855 396.134C373.814 395.624 376.813 394.065 378.702 393.225C379.511 392.145 377.502 390.975 376.243 390.645C375.583 390.495 374.804 389.835 376.543 389.386C377.952 389.026 381.16 389.416 381.16 389.416L385.568 383.237L392.675 390.915C392.675 390.915 386.918 397.334 386.048 398.324C385.178 399.283 381.22 401.593 379.481 401.833C376.363 402.283 377.262 401.053 377.262 401.053C373.994 401.233 375.703 399.463 375.703 399.463Z" fill="#FE9F73"/>
<path d="M377.113 396.944C377.173 396.884 377.173 396.824 377.143 396.764C377.113 396.674 377.023 396.644 376.934 396.704C375.854 397.244 373.995 397.724 373.995 397.724C373.905 397.754 373.875 397.844 373.875 397.904C373.905 397.994 373.995 398.024 374.055 398.024C374.145 397.994 375.944 397.514 377.053 396.974C377.113 396.974 377.113 396.944 377.113 396.944Z" fill="#F07162"/>
<path d="M378.521 398.354C378.581 398.294 378.581 398.204 378.551 398.144C378.491 398.084 378.401 398.054 378.341 398.114C377.112 398.924 375.703 399.313 375.673 399.313C375.583 399.343 375.553 399.433 375.553 399.493C375.583 399.583 375.673 399.613 375.733 399.613C375.793 399.583 377.232 399.224 378.521 398.354C378.491 398.384 378.491 398.354 378.521 398.354Z" fill="#F07162"/>
<path d="M379.841 400.213C379.901 400.153 379.901 400.093 379.871 400.033C379.811 399.973 379.721 399.943 379.661 399.973C378.582 400.663 377.292 400.933 377.263 400.933C377.173 400.963 377.113 401.023 377.143 401.113C377.173 401.203 377.233 401.263 377.322 401.233C377.382 401.233 378.702 400.933 379.841 400.213Z" fill="#F07162"/>
<path d="M391.686 392.355L389.767 394.514C389.767 394.514 382.571 388.306 382.031 387.496C382.151 387.376 384.19 384.376 384.19 384.376L391.686 392.355Z" fill="#E2F2F1"/>
<path d="M379.362 312.482C379.362 312.482 391.626 311.372 397.743 321.51C403.32 330.778 413.995 343.795 415.344 356.632C416.423 367.01 396.993 387.646 391.896 392.595L382.9 382.997C382.9 382.997 397.203 360.291 398.312 357.502C399.332 354.953 378.402 327.328 378.402 327.328L379.362 312.482Z" fill="#28D3E6"/>
<path d="M391.895 392.835C391.955 392.835 392.015 392.805 392.075 392.775C392.165 392.685 392.195 392.535 392.105 392.415C390.066 390.075 384.219 383.987 383.229 382.967C388.237 375.288 398.582 357.652 398.582 357.142C398.582 356.992 398.462 356.902 398.342 356.902C398.222 356.902 398.132 356.992 398.102 357.112C397.802 357.892 388.087 374.629 382.72 382.877L382.6 383.057L382.75 383.207C382.81 383.267 389.496 390.225 391.745 392.775C391.775 392.805 391.835 392.835 391.895 392.835Z" fill="#252B42"/>
<path d="M403.23 359.302C403.38 359.302 403.47 359.182 403.47 359.062C403.47 358.912 403.35 358.822 403.23 358.822C401.701 358.822 399.093 357.322 398.553 356.992C397.713 353.603 385.929 336.986 385.419 336.267C385.329 336.147 385.179 336.117 385.06 336.207C384.94 336.297 384.91 336.447 385 336.567C385.12 336.747 397.503 354.173 398.073 357.202L398.103 357.322L398.193 357.382C398.343 357.442 401.401 359.302 403.23 359.302Z" fill="#252B42"/>
<path d="M409.256 339.956C409.316 339.956 409.346 339.956 409.406 339.926C409.526 339.836 409.556 339.686 409.466 339.566L395.972 318.69C389.076 311.312 380.62 312.272 380.53 312.302C380.38 312.332 380.29 312.452 380.32 312.572C380.35 312.722 380.47 312.812 380.59 312.782C380.68 312.782 388.866 311.822 395.583 318.99L409.046 339.806C409.106 339.896 409.166 339.956 409.256 339.956Z" fill="#252B42"/>
<path d="M385.419 506.061H375.134L370.966 501.382L363.32 506.061H361.671C361.101 506.061 360.591 506.451 360.471 507.021C360.321 507.801 360.891 508.46 361.611 508.46H385.569C385.749 508.46 385.899 508.31 385.899 508.13V506.541C385.869 506.271 385.659 506.061 385.419 506.061Z" fill="#FFA378"/>
<path d="M385.298 506.061V501.712C385.298 501.712 383.559 499.312 380.92 500.542C380.92 500.542 376.932 503.451 373.394 499.942L364.639 503.931C364.639 503.931 362.24 504.741 361.58 506.061H385.298Z" fill="#252B42"/>
<path d="M385.418 501.742H385.238V506.061H385.418V501.742Z" fill="#252B42"/>
<path d="M377.352 501.772C377.022 501.772 376.812 501.742 376.812 501.742L376.842 501.562C376.872 501.562 378.941 501.862 380.89 500.482L380.98 500.632C379.571 501.622 378.132 501.772 377.352 501.772Z" fill="#252B42"/>
<path d="M383.2 505.251L383.08 505.101L384.219 504.321L384.309 504.471L383.2 505.251Z" fill="#252B42"/>
<path d="M382.391 505.041L382.301 504.891L383.41 504.111L383.5 504.261L382.391 505.041Z" fill="#252B42"/>
<path d="M360.801 508.25C360.531 508.01 360.352 507.65 360.352 507.26C360.352 506.541 360.921 505.971 361.611 505.971H385.299C385.659 505.971 385.989 506.271 385.989 506.661V507.86H385.809V506.661C385.809 506.391 385.599 506.151 385.299 506.151H361.611C361.011 506.151 360.531 506.661 360.531 507.26C360.531 507.59 360.681 507.89 360.921 508.1L360.801 508.25Z" fill="#252B42"/>
<path d="M361.671 506.091L361.521 506.001C361.551 505.971 362.031 504.951 363.8 504.171C365.569 503.391 373.306 499.882 373.366 499.852L373.426 500.002C373.336 500.032 365.599 503.571 363.86 504.321C362.151 505.101 361.701 506.091 361.671 506.091Z" fill="#252B42"/>
<path d="M358.282 506.061H347.997L343.829 501.382L336.183 506.061H334.534C333.964 506.061 333.455 506.451 333.335 507.021C333.185 507.801 333.754 508.46 334.474 508.46H358.432C358.612 508.46 358.762 508.31 358.762 508.13V506.541C358.762 506.271 358.552 506.061 358.282 506.061Z" fill="#FFA378"/>
<path d="M358.193 506.061V501.712C358.193 501.712 356.454 499.312 353.815 500.542C353.815 500.542 349.827 503.451 346.289 499.942L337.533 503.931C337.533 503.931 335.134 504.741 334.475 506.061H358.193Z" fill="#252B42"/>
<path d="M358.281 501.742H358.102V506.061H358.281V501.742Z" fill="#252B42"/>
<path d="M350.247 501.772C349.917 501.772 349.707 501.742 349.707 501.742L349.737 501.562C349.767 501.562 351.836 501.862 353.785 500.482L353.875 500.632C352.466 501.622 350.996 501.772 350.247 501.772Z" fill="#252B42"/>
<path d="M356.063 505.251L355.973 505.101L357.082 504.321L357.172 504.471L356.063 505.251Z" fill="#252B42"/>
<path d="M355.254 505.041L355.164 504.891L356.273 504.111L356.393 504.261L355.254 505.041Z" fill="#252B42"/>
<path d="M333.665 508.25C333.395 508.01 333.215 507.65 333.215 507.26C333.215 506.541 333.785 505.971 334.474 505.971H358.162C358.522 505.971 358.852 506.271 358.852 506.661V507.86H358.672V506.661C358.672 506.391 358.462 506.151 358.162 506.151H334.474C333.875 506.151 333.395 506.661 333.395 507.26C333.395 507.59 333.545 507.89 333.785 508.1L333.665 508.25Z" fill="#252B42"/>
<path d="M334.564 506.091L334.414 506.001C334.444 505.971 334.924 504.951 336.693 504.171C338.462 503.391 346.198 499.882 346.258 499.852L346.318 500.002C346.228 500.032 338.492 503.571 336.753 504.321C335.044 505.101 334.564 506.091 334.564 506.091Z" fill="#252B42"/>
<path fill-rule="evenodd" clip-rule="evenodd" d="M280 152C244.101 152 215 122.899 215 87C215 51.1015 244.101 22 280 22C315.899 22 345 51.1015 345 87C345 122.899 315.899 152 280 152ZM280 121.098C261.168 121.098 245.902 105.593 245.902 86.4672C245.902 67.341 261.168 51.8361 280 51.8361C298.832 51.8361 314.098 67.341 314.098 86.4672C314.098 105.593 298.832 121.098 280 121.098Z" fill="#E85049"/>
<path fill-rule="evenodd" clip-rule="evenodd" d="M438.697 289.36C422.513 289.36 409.393 276.241 409.393 260.057C409.393 243.873 422.513 230.754 438.697 230.754C454.88 230.754 468 243.873 468 260.057C468 276.241 454.88 289.36 438.697 289.36ZM438.697 279.77C427.809 279.77 418.984 271.183 418.984 260.59C418.984 249.997 427.809 241.41 438.697 241.41C449.584 241.41 458.41 249.997 458.41 260.59C458.41 271.183 449.584 279.77 438.697 279.77Z" fill="#E85049"/>
</g>
<defs>
<clipPath id="clip0_2636_2607">
<rect width="473" height="513.5" fill="white" transform="translate(0 0.75)"/>
</clipPath>
</defs>
</svg>
